<svg xmlns="http://www.w3.org/2000/svg" viewBox="0 0 1920 1080" width="1920" height="1080"><g transform="translate(638.0 461.0) rotate(0.0 -274.5 275.5) translate(-219.0 31.0) scale(-1.0407582938388626 1.0404667938138488)"><svg width="98.966" height="499.776" viewBox="210.423 29.794 98.966 499.776"><path d="M466.53 262.329 524.5 3l-214.97.329-60 257z" fill="#fff"/><g fill="#222433"><path d="M466.531 265.329h-.031l-217-2a3 3 0 0 1-2.894-3.682l60-257a3 3 0 0 1 2.92-2.318L524.5 0a3 3 0 0 1 2.928 3.654l-57.97 259.329a3 3 0 0 1-2.927 2.346zM253.3 257.363l210.829 1.944 56.622-253.3-208.842.319z"/><path d="M485.7 525.4a3 3 0 0 1-2.989-2.781l-18.946-258.912a3 3 0 0 1 5.985-.437l18.942 258.912a3 3 0 0 1-2.773 3.211c-.075.007-.149.007-.219.007zm-251.825 4.17a3 3 0 0 1-2.932-3.652l58.729-263.869a3 3 0 1 1 5.856 1.3L236.8 527.221a3 3 0 0 1-2.925 2.349z"/><path d="M3 525.4a3 3 0 0 1-2.931-3.652L58.6 258.678a3 3 0 0 1 2.928-2.349h.025l405.17 3.371a3 3 0 0 1-.025 6h-.025l-402.741-3.35-58 260.7A3 3 0 0 1 3 525.4z"/></g></svg></g><g transform="translate(712.0 460.0) rotate(0.0 -274.5 275.5) translate(-320.0 0.0) scale(-1.0407582938388626 1.0404667938138488)"><svg width="220.032" height="529.57" viewBox="307.468 0 220.032 529.57"><path d="M466.53 262.329 524.5 3l-214.97.329-60 257z" fill="#fff"/><g fill="#222433"><path d="M466.531 265.329h-.031l-217-2a3 3 0 0 1-2.894-3.682l60-257a3 3 0 0 1 2.92-2.318L524.5 0a3 3 0 0 1 2.928 3.654l-57.97 259.329a3 3 0 0 1-2.927 2.346zM253.3 257.363l210.829 1.944 56.622-253.3-208.842.319z"/><path d="M485.7 525.4a3 3 0 0 1-2.989-2.781l-18.946-258.912a3 3 0 0 1 5.985-.437l18.942 258.912a3 3 0 0 1-2.773 3.211c-.075.007-.149.007-.219.007zm-251.825 4.17a3 3 0 0 1-2.932-3.652l58.729-263.869a3 3 0 1 1 5.856 1.3L236.8 527.221a3 3 0 0 1-2.925 2.349z"/><path d="M3 525.4a3 3 0 0 1-2.931-3.652L58.6 258.678a3 3 0 0 1 2.928-2.349h.025l405.17 3.371a3 3 0 0 1-.025 6h-.025l-402.741-3.35-58 260.7A3 3 0 0 1 3 525.4z"/></g></svg></g><g transform="translate(962.0 98.0) rotate(0.0 407.0 303.5) scale(1.0002715725030997 1.0011000555800196)"><svg width="813.779" height="606.333" viewBox="0 0 813.779 606.333"><path d="M2.925 19.465v583.948l807.929-.2V55.273" fill="#fff"/><path d="M2.925 606.333A2.923 2.923 0 0 1 0 603.413V19.465a2.925 2.925 0 0 1 5.85 0v581.029l802.079-.2V55.275a2.925 2.925 0 0 1 5.85 0v547.938a2.923 2.923 0 0 1-2.925 2.92z" fill="#222433"/><path d="M2.925 2.92H810.69v52.555H2.925z" fill="#fff"/><path d="M810.69 58.4H2.925A2.923 2.923 0 0 1 0 55.475V2.92A2.923 2.923 0 0 1 2.925 0H810.69a2.923 2.923 0 0 1 2.925 2.92v52.555a2.923 2.923 0 0 1-2.925 2.925zM5.85 52.555h801.915V5.839H5.85z" fill="#222433"/><path d="M793.408 44.757a2.917 2.917 0 0 1-2.074-.861l-25.1-25.181a2.923 2.923 0 0 1 4.147-4.116l25.1 25.178a2.92 2.92 0 0 1-2.073 4.98z" fill="#222433"/><path d="M768.3 44.757a2.919 2.919 0 0 1-2.073-4.98l25.1-25.178a2.922 2.922 0 1 1 4.147 4.119l-25.1 25.175a2.92 2.92 0 0 1-2.074.864zm-19.046 0h-25.226a2.922 2.922 0 0 1-2.925-2.92V16.655a2.923 2.923 0 0 1 2.925-2.92h25.226a2.923 2.923 0 0 1 2.925 2.92v25.182a2.923 2.923 0 0 1-2.925 2.92zm-22.3-5.84h19.377V19.575h-19.379zM704.6 41.168h-24.251a2.92 2.92 0 1 1 0-5.839H704.6a2.92 2.92 0 1 1 0 5.839z" fill="#222433"/><path d="M426.639 96.843h332.438v353.918H426.639z" fill="#82b1ff"/><path d="m462.438 450.761 37.672-62.173a63.882 63.882 0 0 1 54.976-35.061l12.757-.414s-2.486 38.141 36.877 39.6c38 1.408 34.525-41.916 34.525-41.916l12.964-.42a63.918 63.918 0 0 1 63.8 47.358 62.965 62.965 0 0 1 4.432 25.972l1.755 27.051z" fill="#5a38fd"/><path d="M648.158 216.563v-35.717a32.188 32.188 0 0 0-32.171-32.2h-84.544a24.327 24.327 0 0 0 0 48.653l68.449 1.61a11.462 11.462 0 0 1 11.183 11.714l-.6 28.435a15.488 15.488 0 0 0 3.027 9.548z" fill="#fff"/><path d="M613.5 251.381a1.756 1.756 0 0 1-.261-.013 2.777 2.777 0 0 1-1.972-1.11A18.151 18.151 0 0 1 607.7 239l.6-28.434a8.7 8.7 0 0 0-8.476-8.883l-68.448-1.61a27.1 27.1 0 0 1 .066-54.206h84.534a34.962 34.962 0 0 1 34.956 34.968v35.726a2.774 2.774 0 0 1-.892 2.035l-34.656 32.043a2.778 2.778 0 0 1-1.884.742zm-82.058-99.96a21.551 21.551 0 0 0 0 43.1l68.514 1.611a14.26 14.26 0 0 1 13.892 14.55l-.6 28.433a12.685 12.685 0 0 0 .932 5.081l31.2-28.848v-34.5a29.412 29.412 0 0 0-29.4-29.425z" fill="#222433"/><path d="M613.637 248.5a30.728 30.728 0 1 1 25.318 30.287l.314 78.354a35.493 35.493 0 0 1-70.974 1.017l-.683-24.83a56.2 56.2 0 0 1-41.5-54.237 53.257 53.257 0 0 1 6.891-25.922l3.423-23.952-.007-.046a55.949 55.949 0 0 1 4.44-31.656l60.87.112a12.514 12.514 0 0 1 12.489 12.536v.167z" fill="#fff"/><path d="M603.781 395.5a38.34 38.34 0 0 1-38.26-37.264l-.627-22.8A59.049 59.049 0 0 1 523.34 279.1a56.049 56.049 0 0 1 6.989-26.8l3.3-23.069a58.792 58.792 0 0 1 4.71-32.86 2.776 2.776 0 0 1 2.524-1.622l60.869.112a15.288 15.288 0 0 1 15.257 15.322v.2l-.29 19.232a33.531 33.531 0 1 1 27.694 52.438q-1.326 0-2.65-.1l.3 75.19a38.08 38.08 0 0 1-37.249 38.355c-.338.01-.676.013-1.014.013zm-61.109-195.2a53.248 53.248 0 0 0-3.506 28.466 3.064 3.064 0 0 1 .01.85l-3.422 23.952a2.757 2.757 0 0 1-.307.925 50.131 50.131 0 0 0-6.557 24.6 53.481 53.481 0 0 0 39.445 51.559 2.776 2.776 0 0 1 2.051 2.6l.682 24.831a32.719 32.719 0 0 0 65.426-.937l-.314-78.346a2.775 2.775 0 0 1 2.764-2.786 2.68 2.68 0 0 1 .5.043 28 28 0 1 0-23.021-28.408l-.012.9a2.775 2.775 0 1 1-5.55-.042q0-.49.014-.979l.562-37.233a9.737 9.737 0 0 0-9.585-9.885h-.127z" fill="#222433"/><path d="M582.328 338.081a59.344 59.344 0 0 1-16.661-2.394 2.776 2.776 0 0 1 1.494-5.347l.061.018a53.334 53.334 0 0 0 45.617-7.443 2.776 2.776 0 0 1 3.169 4.558 58.879 58.879 0 0 1-33.68 10.608zm-29.573-79.112a2.775 2.775 0 0 1-2.73-3.273l4.588-25.178a2.775 2.775 0 0 1 5.458 1l-3.956 21.706 12.389-.714a2.776 2.776 0 0 1 .355 5.541h-.037l-15.91.916h-.157z" fill="#222433"/><path d="M554.558 231.016c0 12.029-8.4 21.717-18.767 21.717S517 243.008 517 231.016z" fill="#fff"/><path d="M535.791 255.509c-11.889 0-21.562-10.987-21.562-24.493A2.776 2.776 0 0 1 517 228.24h37.554a2.775 2.775 0 0 1 2.775 2.776c.004 13.506-9.66 24.493-21.538 24.493zm-15.845-21.717c1.138 9.133 7.808 16.165 15.84 16.165s14.684-7.032 15.822-16.165z" fill="#222433"/><path d="M603.953 231.016c0 12.029-8.4 21.717-18.759 21.717s-18.768-9.725-18.768-21.717z" fill="#fff"/><g fill="#222433"><path d="M585.194 255.509c-11.879 0-21.543-10.987-21.543-24.493a2.776 2.776 0 0 1 2.775-2.776h37.527a2.776 2.776 0 0 1 2.775 2.776c0 13.506-9.66 24.493-21.534 24.493zm-15.822-21.717c1.138 9.133 7.8 16.165 15.822 16.165s14.676-7.032 15.813-16.165z"/><path d="M618.484 233.792h-65.729a2.776 2.776 0 0 1 0-5.552h65.729a2.776 2.776 0 0 1 0 5.552zM563.247 297.3c-7.974 0-16.332-6.092-17.813-20.125a2.777 2.777 0 0 1 2.469-3.052h.017l30.93-3.081a2.776 2.776 0 0 1 3.04 2.483c.007.067.011.134.013.2.424 14.652-8.534 22.934-17.6 23.544-.355.019-.703.031-1.056.031zm-11.878-17.943c1.9 9.562 7.78 12.693 12.555 12.369 5.821-.391 11.569-5.58 12.35-14.85zm97.51-21.303a2.766 2.766 0 0 1-.941-.165l-19.712-7.116a2.776 2.776 0 0 1-.078-5.194L654.954 235a2.776 2.776 0 0 1 2.131 5.126c-.032.013-.063.026-.1.038l-19.972 7.886 12.8 4.621a2.776 2.776 0 0 1-.942 5.388z"/><circle cx="583.233" cy="237.327" r="5.92"/><circle cx="541.886" cy="237.141" r="5.92"/></g><path d="M56.452 96.843H388.89v353.918H56.452z" fill="#82b1ff"/><path d="M250.591 272.4c.42-19.075.734-38.255 1.049-57.33-20.773-2.2-42.176-3.983-64-5.45-8.078-.524-16.052-1.048-24.025-1.467M75.284 449.254c23.2 0 294.35-.343 293.752-1.4 0 0-42.381-81.974-64.2-102.726-14.689-13.94-40.183-12.787-43.75-12.682 0 0-84.458 1.572-85.612 1.572l-11.75.209a63.785 63.785 0 0 0-35.042 11.11 64.5 64.5 0 0 0-27.488 31.338z" fill="#fff"/><path d="M75.284 451.255a3 3 0 0 1-2.821-4.022l25.907-71.574c.015-.041.031-.082.048-.122a67.842 67.842 0 0 1 28.664-32.737 66.576 66.576 0 0 1 36.594-11.566l11.742-.21c1.243-.006 56.538-1.03 85.609-1.571l.248-.009c11.355-.362 32.354.921 45.623 13.513 21.938 20.863 63.063 100.16 64.8 103.525a3 3 0 1 1-5.33 2.756c-.422-.816-42.4-81.762-63.606-101.931-8.536-8.1-23.579-12.428-41.3-11.866l-.294.01c-3.482.064-84.531 1.573-85.7 1.573l-11.7.209a60.61 60.61 0 0 0-33.4 10.587c-.065.044-.13.086-.2.124a61.805 61.805 0 0 0-26.183 29.82l-25.88 71.512a3 3 0 0 1-2.821 1.979z" fill="#222433"/><path d="m245.45 192.439-43.54-14.52-37.245 19.641c-2.938 9.642-3.253 24.42.524 31.652a49.967 49.967 0 0 0-16.052 31.652 50.693 50.693 0 0 0 31.9 52.824l-1.889 22.324a32.041 32.041 0 0 0 63.789 6.079l9.884-89.325" fill="#fff"/><path d="M211.075 373.86c-.966 0-1.943-.04-2.925-.123A35.206 35.206 0 0 1 176 335.752l1.7-20.041a53.863 53.863 0 0 1-31.693-55.178 53.261 53.261 0 0 1 15.413-32.071c-3.245-8.669-2.535-22.733.232-31.815a3.144 3.144 0 0 1 1.542-1.865l37.245-19.644a3.149 3.149 0 0 1 2.466-.2l43.54 14.52.05.017a3.145 3.145 0 1 1-2.044 5.948l-42.26-14.094-34.877 18.387c-2.57 9.555-2.316 22.35.658 28.043a3.141 3.141 0 0 1-.663 3.773 47.018 47.018 0 0 0-15.05 29.685 47.568 47.568 0 0 0 29.913 49.544 3.146 3.146 0 0 1 1.994 3.193l-1.889 22.324a28.894 28.894 0 0 0 57.524 5.472l9.886-89.326c0-.032.006-.063.01-.094a3.148 3.148 0 0 1 6.246.785l-9.881 89.322a35.45 35.45 0 0 1-34.985 31.425z" fill="#222433"/><path d="M199.392 320.185a55.341 55.341 0 0 1-6.023-.332 54.048 54.048 0 0 1-13.592-3.343c-.037-.013-.073-.028-.109-.043a3.145 3.145 0 1 1 2.417-5.806 47.709 47.709 0 0 0 11.988 2.943 46.77 46.77 0 0 0 27.335-5.2l.063-.034a3.145 3.145 0 1 1 2.912 5.576 52.733 52.733 0 0 1-24.991 6.239z" fill="#222433"/><ellipse cx="204.428" cy="229.004" fill="#222433" rx="5.351" ry="5.345"/><ellipse cx="167.288" cy="224.812" fill="#222433" rx="5.351" ry="5.345"/><path d="M175.8 283.354a14.4 14.4 0 0 1-1.581-.085c-7.741-.845-15.121-7.811-14.157-21.47v-.012a3.147 3.147 0 0 1 3.372-2.9l28.013 2.1c.075 0 .151.014.226.025a3.146 3.146 0 0 1 2.653 3.571c-1.859 12.507-10.626 18.777-18.527 18.777zm-9.5-17.948c.405 7.854 4.694 11.186 8.6 11.612 4.8.527 10.227-2.785 12.453-10.038zm23.23-18.583h-.164l-14.373-.734a3.145 3.145 0 0 1-2.856-4.039l6.61-22.115a3.147 3.147 0 0 1 6.032 1.8l-5.464 18.278 10.373.524a3.145 3.145 0 1 1-.158 6.289z" fill="#222433"/><path d="M274.3 227.328c-18.045-6.184-34.1 4.821-44.694 17.083l4.616-30.08c.525-3.249.42-7.546-3.672-8.384l-47.737-9.224a31.492 31.492 0 0 1-3.357 1.153 35.564 35.564 0 1 1 21.927-50.832 32.815 32.815 0 0 1 53.822 28.822 62.9 62.9 0 0 1 19.41 44.439c0 2.306-.105 4.717-.315 7.023z" fill="#5a38fd"/><path d="M249.857 271.662a27.793 27.793 0 1 0-19.41-26.517" fill="#fff"/><path d="M258.25 276.064a30.675 30.675 0 0 1-9.353-1.407 3.145 3.145 0 1 1 1.92-5.99 24.388 24.388 0 0 0 7.433 1.108 24.63 24.63 0 1 0-24.655-24.63 3.148 3.148 0 0 1-6.295 0 30.95 30.95 0 1 1 30.95 30.919z" fill="#222433"/><path d="M261.607 254.788a3.138 3.138 0 0 1-1.391-.324l-17-8.385a3.143 3.143 0 0 1 .57-5.855l25.18-6.812.051-.014a3.144 3.144 0 1 1 1.595 6.083l-17.147 4.64 9.534 4.7a3.143 3.143 0 0 1-1.4 5.963z" fill="#222433"/><path d="M388.89 453.76H56.452a3 3 0 0 1-3-3V96.842a3 3 0 0 1 3-3H388.89a3 3 0 0 1 3 3V450.76a3 3 0 0 1-3 3zm-329.438-6H385.89V99.842H59.452zm699.087 6H426.1a3 3 0 0 1-3-3V96.842a3 3 0 0 1 3-3h332.439a3 3 0 0 1 3 3V450.76a3 3 0 0 1-3 3zm-329.439-6h326.439V99.842H429.1z" fill="#222433"/><rect fill="#5a38fd" height="51.269" rx="12.066" width="74.18" x="247.214" y="494.158"/><path d="m264.935 538.494-7.728 25.332 34.889-25.332" fill="#5a38fd"/><circle cx="408.898" cy="523.384" fill="#82b1ff" r="26.226"/><path d="M408.9 563.473a40.09 40.09 0 1 1 40.089-40.089 40.134 40.134 0 0 1-40.089 40.089zm0-74.179a34.09 34.09 0 1 0 34.089 34.09 34.128 34.128 0 0 0-34.089-34.09z" fill="#5a38fd"/><rect fill="#5a38fd" height="46.431" rx="15.383" width="30.766" x="510.005" y="490.158"/><path d="M525.388 546.056c-13.484 0-24.876-10.381-24.876-22.668a3 3 0 0 1 6 0c0 8.879 8.821 16.668 18.876 16.668s18.876-7.789 18.876-16.668a3 3 0 0 1 6 0c0 12.287-11.391 22.668-24.876 22.668zm5.028 12.428h-9.657a3 3 0 0 1 0-6h9.657a3 3 0 0 1 0 6z" fill="#5a38fd"/><path d="M525.588 555.912a3 3 0 0 1-3-3v-9.657a3 3 0 1 1 6 0v9.657a3 3 0 0 1-3 3z" fill="#5a38fd"/></svg></g><g transform="translate(937.0 228.0) rotate(0.0 -329.5 392.0) scale(-0.9725257778361523 0.9725068348375765)"><svg width="677.617" height="806.164" viewBox="0 0 677.617 806.164"><path d="M452.44 194c10.111-1.093 56.223-2.625 56-4-.41-2.528-1.958-23.945-1.958-23.945-9.164-2.404-29.141-5.329-42.209-23.638-6.054-8.482-12.703-22.579-12.703-22.579M523.881 1.957c3.345-2.951 106.853-18.309 120.243 122.425 1.875 23.911 1.334 66.51 1.317 69.618-.035 6.297-24.98-2.62-40-4-10.057-.924-19.552-.432-28 0-2.515-15.18-3.658-41.871-6.173-57.051l6.135-18.577s19.89-3.107 15.894-31.527c-14.246-40.547-58.692-56.932-69.416-80.888z" fill="#5a38fd"/><path d="m199.44 375 20.033 53.945 408.242 12.434 31.084-18.651c7.654-6.947 11.965-25.703 12.434-34.193 8.289-150.241 6.217-173.037-20.707-193.76-2.9-1.454-10.875-6.601-24.883-8.289C588.272 181.982 516.44 183 449.44 191c-3.88.463-55.252 9-115 9-23 0-125.594-58.469-158-56-52.752 4.02-39.392 72.221-42 87-1.771 10.037 132 65 180 79 18.861 5.501 109.551-12.222 110.787-7.532 3.524 13.372 10.058 26.223 12.213 30.532l-95 8" fill="#fff"/><path d="M544.612 256.238h-.126c-36.668-.066-67.038-30.353-67.699-67.515a3 3 0 0 1 2.946-3.053h.055a3 3 0 0 1 2.999 2.947c.603 33.918 28.286 61.561 61.711 61.621h.114c16.474.001 31.967-6.4 43.64-18.031 11.699-11.657 18.159-27.173 18.188-43.689 0-.855-.026-1.729-.078-2.593a2.999 2.999 0 0 1 2.816-3.173 3.015 3.015 0 0 1 3.174 2.816c.059.982.088 1.976.088 2.956-.032 18.124-7.119 35.145-19.954 47.934-12.804 12.758-29.803 19.78-47.874 19.78z" fill="#222433"/><path d="M223.897 694.601c-16.733 22.332-39.976 41.245-60.446 46.459-27.396 6.973-54.002 32.732-52.24 61.122h178.492l51.261-110.174-10.473-19.237z" fill="#82b1ff"/><path d="m330.491 672.771-109.989 21.827L101.821 482.83c-4.88-8.103-8.388-16.489-10.528-24.914-7.635-30.059 6.046-60.617 31.487-76.038 8.101-4.91 17.486-7.288 26.959-7.246l53.121.237" fill="#fff"/><path d="M220.501 697.599a3.002 3.002 0 0 1-2.616-1.533L99.204 484.297c-4.923-8.173-8.579-16.828-10.818-25.642-3.864-15.213-2.659-30.918 3.485-45.418 5.931-13.998 16.356-26.046 29.354-33.924 8.365-5.07 18.271-7.733 28.527-7.68l53.121.237a3 3 0 0 1-.014 6h-.014l-53.121-.237c-9.146-.046-17.971 2.315-25.391 6.811-25.193 15.271-37.304 44.501-30.133 72.734 2.096 8.245 5.523 16.355 10.191 24.105l117.663 209.949 107.853-21.403a3 3 0 0 1 1.168 5.886l-109.989 21.827a3.06 3.06 0 0 1-.585.057z" fill="#222433"/><path d="M339.936 691.053c-16.863 23.854-41.481 44.519-63.027 50.006-27.396 6.973-46.02 32.732-44.258 61.122h274.643s-.074-105.217-3.915-148.393z" fill="#82b1ff"/><path d="M349.154 343.707a3 3 0 0 1-1.338-5.686c8.071-4.016 16.768-6.117 25.848-6.245l183.431-5.253.481-53.156a3.001 3.001 0 0 1 6 .054l-.508 56.045a3.001 3.001 0 0 1-2.914 2.972l-186.362 5.336c-8.217.116-16.043 2.006-23.304 5.618a2.981 2.981 0 0 1-1.334.315z" fill="#222433"/><path d="M572.367 346.158c-.777 0-1.554-.3-2.141-.899l-11.543-11.76a2.999 2.999 0 1 1 4.281-4.202l11.543 11.76a2.999 2.999 0 0 1-2.14 5.101z" fill="#222433"/><path d="M221.328 423.427c-3.67 19.203-.143 39.801 11.037 58.367l108.599 210.214 123.614-28.971 46.053-11.321-41.321-90.934-19.282-38.858h34.647l54.967.274h11.893c31.635.002 60.218-14.189 79.379-36.795 8.759-10.334 13.508-23.477 13.508-37.023v-13.828" fill="#fff"/><path d="M340.963 695.008a2.998 2.998 0 0 1-2.664-1.623L229.744 483.257c-11.205-18.654-15.241-40.098-11.362-60.394a3 3 0 1 1 5.893 1.126c-3.606 18.872.18 38.851 10.661 56.257.033.056.065.113.095.171l107.525 208.136 121.338-28.437 42.512-10.45L466.6 562.07l-19.259-38.813a3.002 3.002 0 0 1 2.688-4.334h34.647l54.981.274h11.879c29.741.002 57.84-13.023 77.091-35.734 8.252-9.736 12.797-22.196 12.797-35.083v-13.828a3 3 0 1 1 6 0v13.828c0 14.307-5.05 28.144-14.221 38.963-20.39 24.056-50.157 37.855-81.661 37.855h-11.9l-54.981-.274h-29.795l17.131 34.525.044.092 41.321 90.934a3.002 3.002 0 0 1-2.015 4.154l-46.054 11.321-123.646 28.978c-.227.054-.457.08-.684.08z" fill="#222433"/><path d="M374.464 451.757a59.838 59.838 0 0 1-39.53-14.904 3 3 0 0 1 3.959-4.509 53.902 53.902 0 0 0 36.378 13.407h1.7l241.169-6.972a53.816 53.816 0 0 0 52.438-53.478l1.036-144.775c.006-.623.002-1.239-.013-1.853-.676-27.987-24.422-50.756-52.934-50.756l-41.221.083c-1.662-.023-3.003-1.337-3.006-2.994a3 3 0 0 1 2.994-3.006l41.228-.083c31.747 0 58.184 25.396 58.938 56.611a60.6 60.6 0 0 1 .015 2.046l-1.036 144.775a59.801 59.801 0 0 1-58.266 59.427l-241.255 6.973-1.745.001c-.283.005-.567.007-.849.007z" fill="#222433"/><path d="M418.095 381.972c9.75 35.136-23.987 74.24-60.252 59.423l-1.44-.611c-15.853-7.067-33.012-11.543-54.429 2.072-15.086 9.626-36.213 26.36-44.813 11.771-5.958-10.113 17.936-30.691 35.011-46.502-31.83 10.361-73.567 23.831-79.037 9.688-5.471-14.143 14.299-25.334 55.662-38.41-47.87 6.383-62.646 14.993-66.313.819-2.106-8.114 8.216-15.682 24.074-22.004 7.147-2.849 15.419-5.445 24.185-7.724 27.86-7.242 60.705-11.276 78.265-10.04 0 0 4.783.218 20.146.254a2437.6 2437.6 0 0 0 18.679-.036c31.041-.157 45.133 22.846 50.262 41.3z" fill="#fff"/><path d="M266.963 463.355c-1.193 0-2.354-.121-3.478-.38-3.752-.865-6.749-3.161-8.909-6.825-6.02-10.217 8.928-25.565 25.562-41.014-21.805 6.862-40.364 11.842-52.999 11.843-8.698.001-14.587-2.358-16.802-8.085-1.586-4.099-1.453-8.128.395-11.975 3.199-6.66 11.631-12.853 26.948-19.458l-1.706.311c-11.424 2.085-18.963 3.464-24.515 3.049-6.492-.485-10.268-3.615-11.881-9.849-2.376-9.158 6.326-17.752 25.867-25.542 6.99-2.786 15.247-5.424 24.541-7.84 27.55-7.161 60.866-11.421 79.231-10.129-.001 0-.001 0 0 0 .022 0 4.948.211 19.941.247 5.546.013 11.817.001 18.655-.036l.335-.001c36.771 0 49.194 30.398 52.836 43.498v.001c5.256 18.939-1.477 40.788-16.752 54.371-13.735 12.214-31.057 15.359-47.525 8.632l-1.478-.627c-17.221-7.676-32.566-10.288-51.647 1.842-1.775 1.133-3.639 2.368-5.557 3.638-10.208 6.763-21.627 14.328-31.062 14.329zm25.209-58.231a2.999 2.999 0 0 1 2.038 5.202c-1.388 1.285-2.821 2.602-4.279 3.942-13.71 12.597-34.429 31.634-30.186 38.836 1.309 2.221 2.974 3.538 5.088 4.025 7.492 1.727 19.905-6.496 29.88-13.104 1.947-1.29 3.84-2.544 5.647-3.697 22.598-14.366 40.877-9.588 57.264-2.283l1.391.59c14.232 5.814 29.273 3.058 41.232-7.577 13.604-12.096 19.614-31.499 14.957-48.283v.001c-3.273-11.777-14.403-39.105-47.064-39.105l-.294.001c-6.852.037-13.144.05-18.7.037-15.253-.036-20.077-.248-20.275-.257-17.869-1.256-50.376 2.929-77.374 9.947-9.054 2.353-17.07 4.913-23.828 7.607-15.593 6.216-23.714 12.945-22.281 18.464 1.78 6.887 6.09 6.677 29.509 2.403 8.82-1.61 19.796-3.614 33.504-5.441a3 3 0 0 1 1.301 5.834c-20.483 6.476-48.321 16.346-53.56 27.254-1.133 2.358-1.199 4.65-.208 7.213 4.488 11.597 50.558-3.401 75.311-11.458.305-.103.617-.151.927-.151zm-57.433 401.041a3 3 0 0 1-2.991-2.814c-1.854-29.877 17.707-56.884 46.512-64.216 19.854-5.056 43.922-24.224 61.316-48.831a3 3 0 0 1 4.901 3.464c-18.171 25.704-43.581 45.794-64.736 51.182-26.015 6.622-43.68 31.027-42.004 58.029a3 3 0 0 1-2.998 3.186zm96.11-602.778c-.387 0-.77-.075-1.13-.221l-137.2-55.76a51.9 51.9 0 0 0-16.966-3.777 3 3 0 0 1-2.845-3.147c.083-1.656 1.52-2.927 3.147-2.845a57.897 57.897 0 0 1 18.923 4.211l136.524 55.485c18.846-1.717 153.384-13.967 155.625-14.035l23.938-1.438a2.993 2.993 0 0 1 3.174 2.815 2.998 2.998 0 0 1-2.814 3.174l-24.026 1.442c-2.743.142-103.288 9.274-156.077 14.083a2.8 2.8 0 0 1-.273.013zm104.589 131.614a3 3 0 0 1-2.896-2.226l-7.179-26.859-98.226 8.181c-1.601.126-3.218.19-4.819.19h-.09a57.848 57.848 0 0 1-21.732-4.218l-149.407-60.713c-15.064-6.122-26.941-18.386-32.583-33.646a2.999 2.999 0 1 1 5.627-2.081c5.06 13.683 15.708 24.679 29.216 30.168l149.399 60.71a51.874 51.874 0 0 0 19.485 3.779h.08c1.45 0 2.908-.057 4.339-.17l100.713-8.389a2.996 2.996 0 0 1 3.147 2.215l7.826 29.283a3 3 0 0 1-2.9 3.776z" fill="#222433"/><path d="M163.212 180.349c-17.991-6.962-28.832-25.467-45.094-40.216-22.525-20.378-35.067-35.487-33.44-42.456 3.666-15.972 39.098 16.572 76.371 34.139.263.124.516.258.765.408 3.303 1.983 27.666 16.683 39.524 25.973 26.1 20.45 2.09 64.95-20.69 74.7a47.26 47.26 0 0 1-51.16-9.47c-17.05-16.89-23.46-34.23-61.12-30.18-17 1.83-42.13 7.18-43.3-8.93-.81-11.17 28.35-18.65 49.64-24.92-31.59-4.66-72.95-10.82-71.68-25.22s31.75-12.7 72.65-6.35c-43.63-14.83-68.7-16.62-65.84-30.31 2.971-14.235 40.328-9.511 74.825.21" fill="#fff"/><path d="M162.236 239.634a50.192 50.192 0 0 1-34.828-14.045c-3.165-3.135-5.914-6.217-8.572-9.198-11.617-13.027-20.793-23.318-50.146-20.161-2.012.217-4.14.483-6.327.757-13.078 1.638-27.901 3.494-35.515-2.75-2.869-2.353-4.475-5.618-4.771-9.703-.817-11.285 18.155-18.079 38.772-24.211-36.123-5.715-62.068-12.121-60.809-26.41.303-3.429 1.871-6.276 4.663-8.463 6.053-4.739 17.657-6.314 37.827-4.748-11.522-3.362-20.637-6.047-26.628-9.142-2.692-1.391-10.887-5.625-9-14.657.663-3.177 2.569-5.741 5.665-7.619 14.496-8.791 52.181-.118 70.31 4.833 1.021-1.713 2.394-2.612 3.531-3.083 7.202-2.98 19.46 4.716 38.02 16.361 11.538 7.24 24.616 15.446 37.9 21.707.354.167.696.349 1.031.55 2.805 1.683 27.756 16.725 39.829 26.183 9.701 7.601 13.891 18.786 12.116 32.347-2.533 19.361-17.55 40.657-33.476 47.473a50.279 50.279 0 0 1-19.592 3.979zm-83.437-49.985c24.229 0 33.723 10.647 44.515 22.748 2.598 2.913 5.284 5.925 8.286 8.898 12.746 12.259 31.554 15.739 47.881 8.838 13.938-5.966 27.625-25.536 29.875-42.73 1.035-7.909.163-18.986-9.867-26.845-11.788-9.234-36.445-24.098-39.218-25.762a5.488 5.488 0 0 0-.502-.267c-13.608-6.414-26.849-14.721-38.53-22.051-13.864-8.699-28.209-17.693-32.535-15.9-.23.095-.769.318-1.102 1.769-.46 1.971.534 10.617 32.529 39.56 5.546 5.029 10.436 10.444 15.164 15.68 9.095 10.071 17.685 19.584 29.001 23.963a3 3 0 1 1-2.166 5.595c-12.647-4.894-21.702-14.921-31.288-25.537-4.63-5.127-9.418-10.429-14.739-15.255-27.777-25.129-33.938-36.393-34.526-42.373-31.483-8.639-57.21-10.837-65.896-5.567-1.64.995-2.59 2.21-2.904 3.715-1.443 6.911 8.798 10.208 32.102 17.007 9.226 2.692 19.684 5.743 31.768 9.85a3 3 0 0 1-1.426 5.805c-26.27-4.078-57.602-7.834-66.815-.617-1.474 1.154-2.231 2.509-2.387 4.266-1.026 11.639 44.612 18.372 69.13 21.988a3 3 0 0 1 .41 5.846c-1.704.502-3.459 1.011-5.244 1.53-16.016 4.652-42.821 12.438-42.252 20.295.175 2.413 1.022 4.211 2.592 5.498 5.62 4.609 19.673 2.849 30.964 1.435 2.225-.278 4.387-.549 6.432-.769 3.879-.415 7.452-.613 10.748-.613zm275.707 27.788a2.988 2.988 0 0 1-1.529-.421l-23.66-14.05a3 3 0 1 1 3.064-5.159l23.66 14.05a3 3 0 0 1-1.535 5.58zm73.044 88.031a3 3 0 0 1-1.114-5.786l14.359-5.74a3 3 0 0 1 2.226 5.571l-14.359 5.74a2.99 2.99 0 0 1-1.112.215z" fill="#222433"/><path d="m455.86 99.63 15.542-66.313 21.759-17.615 42.482 54.916c27.076-17.171 80.82 2.072 41.006 46.031l-1.633 4.741z" fill="#fff"/><path d="M465.361 88.301c-4.829 4.555-11.826 6.895-19.11 5.729-12.136-1.942-20.475-12.88-18.627-24.43 1.849-11.55 13.185-19.339 25.321-17.396 12.136 1.942 20.475 12.88 18.627 24.43a20.266 20.266 0 0 1-1.901 5.9" fill="#fff"/><path d="M449.902 97.32c-1.372 0-2.751-.108-4.125-.328-6.634-1.062-12.482-4.526-16.469-9.756-4.021-5.274-5.671-11.706-4.646-18.111 2.107-13.165 15.016-22.084 28.756-19.884 13.751 2.201 23.223 14.702 21.115 27.867a23.2 23.2 0 0 1-2.183 6.772 3 3 0 0 1-5.361-2.693 17.255 17.255 0 0 0 1.62-5.028c1.584-9.898-5.656-19.315-16.14-20.993-10.473-1.677-20.299 5.01-21.884 14.908-.763 4.767.478 9.57 3.492 13.525 3.05 3.999 7.54 6.652 12.646 7.469 6.064.971 12.262-.879 16.578-4.949a3 3 0 0 1 4.117 4.365c-4.674 4.408-11.007 6.836-17.516 6.836z" fill="#222433"/><path d="M453.481 94.056c-5.345 29.412 13.188 58.979 44.005 68.147a66.298 66.298 0 0 0 10.554 2.211l2.819 22.207c1.139 12.651 10.257 23.471 22.994 27.287 17.133 5.133 35.169-3.896 40.284-20.165a29.395 29.395 0 0 0 1.214-11.333l-4.084-49.462a57.65 57.65 0 0 0 4.189-9.966l-.013.009a56.708 56.708 0 0 0 2.203-10.414" fill="#fff"/><path d="M543.585 218.341c-3.502 0-7.065-.502-10.594-1.559-13.983-4.189-23.837-15.897-25.114-29.836l-2.525-19.888a68.928 68.928 0 0 1-8.721-1.98c-31.968-9.51-51.787-40.274-46.101-71.559a2.999 2.999 0 1 1 5.902 1.073c-5.138 28.269 12.88 56.099 41.909 64.735a63.573 63.573 0 0 0 10.077 2.111 3.002 3.002 0 0 1 2.598 2.598l2.819 22.208.012.109c1.035 11.507 9.226 21.195 20.866 24.682 15.539 4.656 31.943-3.504 36.561-18.191a26.267 26.267 0 0 0 1.089-10.169l-4.086-49.479a2.998 2.998 0 0 1 .344-1.659 54.987 54.987 0 0 0 3.898-9.215c.017-.075.037-.149.061-.224 1-3.206 1.702-6.524 2.086-9.862a2.993 2.993 0 0 1 3.323-2.638 3 3 0 0 1 2.638 3.323 59.849 59.849 0 0 1-2.244 10.719 2.964 2.964 0 0 1-.063.237 60.611 60.611 0 0 1-3.99 9.694l4.013 48.594a32.224 32.224 0 0 1-1.341 12.472c-4.542 14.441-18.388 23.703-33.417 23.704zm-78.181-156.9a3 3 0 0 1-2.99-3.286c.843-8.831 3.597-17.226 8.183-24.952a3 3 0 0 1 5.16 3.063c-4.132 6.959-6.611 14.516-7.37 22.46a3 3 0 0 1-2.983 2.715zm112 39.021c-.259 0-.521-.034-.783-.104L553.41 94.1a3 3 0 0 1-.979-5.326L570.19 75.91a3 3 0 1 1 3.519 4.859l-12.666 9.175 17.14 4.62a3 3 0 0 1-.779 5.898z" fill="#222433"/><ellipse cx="507.407" cy="83.716" fill="#fff" rx="21.179" ry="22.253" transform="matrix(.158 -.9874 .9874 .158 344.5523 571.5158)"/><path d="M507.764 107.925a26.43 26.43 0 0 1-4.178-.334c-6.633-1.062-12.481-4.526-16.469-9.755-4.021-5.274-5.671-11.706-4.646-18.111 2.107-13.165 15.007-22.086 28.757-19.884h.001c13.75 2.201 23.222 14.702 21.114 27.867-1.891 11.818-12.484 20.217-24.579 20.217zm-.711-42.418c-9.201 0-17.236 6.293-18.657 15.166-.763 4.767.478 9.57 3.493 13.525 3.049 3.999 7.54 6.652 12.646 7.469 10.481 1.677 20.301-5.01 21.886-14.908 1.584-9.898-5.656-19.316-16.14-20.994a20.4 20.4 0 0 0-3.228-.258z" fill="#222433"/><path d="M487.088 77.84c-.137 0-.275-.009-.415-.029l-15.349-2.123a3.001 3.001 0 0 1 .822-5.944l15.349 2.123a3.001 3.001 0 0 1-.407 5.973z" fill="#222433"/><path d="m589.975 76.208.368-2.303c2.118-12.711.067-25.796-5.875-37.472-15.956-31.356-55.336-44.826-87.959-30.085-11.947 5.419-23.985 16.914-27.22 29.084-1.117 4.202 1.049 4.712 3.392 2.883l16.859-15.394a1.336 1.336 0 0 1 1.8.284l25.321 32.36c.018.023.034.046.05.07 5.512 8.363 13.17 14.861 21.934 19.111a1.4 1.4 0 0 0 .419.126c9.247-12.281 24.072-15.669 35.377-11.02 14.619 6.012 15.419 13.073 15.534 12.356z" fill="#5a38fd"/><g fill="#222433"><path d="M564.87 118.688c-.467 0-.935-.01-1.403-.031a3 3 0 0 1-2.863-3.131 3.016 3.016 0 0 1 3.131-2.863c5.949.266 11.685-1.555 16.209-5.124 4.83-3.81 7.796-9.198 8.354-15.171.563-6.037-1.393-11.961-5.507-16.68-8.539-9.796-23.727-11.265-33.854-3.275-2.458 1.939-4.435 4.28-5.875 6.959a3 3 0 0 1-5.285-2.841c1.832-3.407 4.337-6.378 7.443-8.829 12.603-9.941 31.485-8.127 42.094 4.044 5.203 5.97 7.675 13.492 6.957 21.18-.711 7.625-4.479 14.488-10.61 19.325-5.297 4.176-11.922 6.437-18.791 6.437z"/><ellipse cx="497.954" cy="83.786" rx="4.393" ry="4.616" transform="matrix(.158 -.9874 .9874 .158 336.5326 562.2433)"/><ellipse cx="464.274" cy="76.73" rx="4.393" ry="4.616" transform="matrix(.158 -.9874 .9874 .158 315.1414 523.0455)"/><path d="M472.114 108.139a2.99 2.99 0 0 1-2.011-.775l-11.54-10.433a3.002 3.002 0 0 1-.392-4.021l15.37-20.572a3 3 0 1 1 4.806 3.591l-13.735 18.384 9.514 8.601a3 3 0 0 1-2.012 5.225zm8.601 18.398c-4.915 0-9.813-2.092-13.104-6.082l-1.561-1.906a3 3 0 1 1 4.643-3.801l1.553 1.897c3.629 4.397 10.293 5.217 14.853 1.819.273-.204.539-.424.789-.654l.409-.386a3 3 0 0 1 4.117 4.365l-.439.414a16.43 16.43 0 0 1-1.29 1.071c-2.95 2.199-6.464 3.263-9.97 3.263z"/></g></svg></g><g transform="translate(1178.0 613.0) rotate(0.0 311.5 198.5) scale(0.9985798687580745 0.9975500973679251)"><svg width="623.886" height="397.975" viewBox="0 0 623.886 397.975"><path d="M285.326 295.961a2.8 2.8 0 0 1-2.8-2.8V155.988a2.8 2.8 0 0 1 5.6 0v137.178a2.8 2.8 0 0 1-2.8 2.795z" fill="#222433"/><ellipse cx="285.326" cy="147.042" fill="#fff" rx="18.842" ry="18.825"/><path d="M285.326 168.662a21.62 21.62 0 1 1 21.641-21.62 21.656 21.656 0 0 1-21.641 21.62zm0-37.649a16.029 16.029 0 1 0 16.044 16.029 16.055 16.055 0 0 0-16.044-16.029zm-96.704 149.106a2.8 2.8 0 0 1-2.8-2.8v-63.832a2.8 2.8 0 0 1 5.6 0v63.836a2.8 2.8 0 0 1-2.8 2.796z" fill="#222433"/><path d="M224.254 174.161 188.622 227l-35.633-52.839z" fill="#82b1ff"/><path d="M119.488 342.949 63.665 181.537a2.734 2.734 0 1 1 5.168-1.787l55.823 161.412a2.734 2.734 0 1 1-5.168 1.787z" fill="#222433"/><path d="M1.276 177.92a23.069 23.069 0 0 1 14.245-29.352l70.629-24.427a23.083 23.083 0 0 1 15.089 43.63L30.61 192.2a23.07 23.07 0 0 1-29.334-14.28zm20.384-11.879h-.006a4.653 4.653 0 0 0 3.048 8.792l70.629-24.423h.007a4.653 4.653 0 0 0-3.048-8.792z" fill="#5a38fd"/><path d="M55.306 249.108a15.419 15.419 0 0 1-10.079-29.144c8.011-2.77 35.962 3.878 35.962 3.878s-17.872 22.5-25.883 25.266z" fill="#fff"/><path d="M56.2 251.7a18.156 18.156 0 0 1-11.868-34.318c8.516-2.945 34.545 3.1 37.487 3.8a2.737 2.737 0 0 1 1.51 4.366c-1.881 2.366-18.613 23.2-27.129 26.149zm20.073-26.153c-10.68-2.278-25.529-4.59-30.152-2.991a12.682 12.682 0 0 0 8.29 23.97c4.623-1.6 14.87-12.591 21.862-20.979z" fill="#222433"/><path d="M117.064 227.75a15.419 15.419 0 0 0-10.079-29.144c-8.011 2.77-25.882 25.266-25.882 25.266s27.951 6.648 35.961 3.878z" fill="#fff"/><path d="M117.958 230.336c-8.515 2.946-34.546-3.1-37.486-3.8a2.737 2.737 0 0 1-1.51-4.366c1.879-2.367 18.612-23.2 27.128-26.149a18.156 18.156 0 0 1 11.869 34.317zm-10.079-29.143c-4.623 1.6-14.871 12.59-21.863 20.979 10.681 2.277 25.53 4.59 30.153 2.991a12.682 12.682 0 0 0-8.29-23.97zm419.11 74.139L592.8 100.065a2.735 2.735 0 1 1 5.12 1.923l-65.812 175.266a2.734 2.734 0 1 1-5.119-1.922z" fill="#222433"/><ellipse cx="595.357" cy="101.027" fill="#82b1ff" rx="24.268" ry="24.243" transform="matrix(.35154756 -.93617002 .93617002 .35154756 291.483 622.867)"/><ellipse cx="554.156" cy="141.788" fill="#82b1ff" rx="24.268" ry="24.243" transform="matrix(.35151488 -.93618229 .93618229 .35151488 226.623 610.739)"/><ellipse cx="599.633" cy="158.863" fill="#82b1ff" rx="24.268" ry="24.243" transform="matrix(.35151488 -.93618229 .93618229 .35151488 240.128 664.387)"/><ellipse cx="535.203" cy="192.267" fill="#82b1ff" rx="24.268" ry="24.243" transform="matrix(.35151488 -.93618229 .93618229 .35151488 167.075 625.73)"/><ellipse cx="580.68" cy="209.342" fill="#82b1ff" rx="24.268" ry="24.243" transform="matrix(.35151488 -.93618229 .93618229 .35151488 180.58 679.378)"/><ellipse cx="445.631" cy="208.97" fill="#fff" rx="35.034" ry="34.997" transform="matrix(.22166763 -.97512228 .97512228 .22166763 143.077 597.192)"/><g fill="#222433"><path d="M437.26 245.8a37.771 37.771 0 1 1 45.164-28.469A37.8 37.8 0 0 1 437.26 245.8zm-23.089-43.983a32.263 32.263 0 1 0 38.619-24.343 32.281 32.281 0 0 0-38.619 24.345z"/><path d="M401.915 388.964 435.2 242.527a2.734 2.734 0 1 1 5.332 1.212l-33.285 146.437a2.734 2.734 0 1 1-5.332-1.212zm41.896-171.987a37.885 37.885 0 0 1-28.526-28.877l-.009-.04a2.735 2.735 0 1 1 5.354-1.116 32.265 32.265 0 0 0 57.07 12.972 2.735 2.735 0 1 1 4.321 3.354 37.888 37.888 0 0 1-38.207 13.707z"/><path d="M430.32 210.542a2.737 2.737 0 0 1 .038-5.348 32.213 32.213 0 0 0 25.459-29.008 2.734 2.734 0 0 1 5.452.423 37.688 37.688 0 0 1-29.777 33.94 2.725 2.725 0 0 1-1.172-.007zm-69.847 94.01 49-244.3a2.734 2.734 0 1 1 5.361 1.075l-49 244.3a2.734 2.734 0 1 1-5.361-1.076z"/></g><path d="M384.163 2.9a10.24 10.24 0 0 0-11.731 7.511l-7.984 39.807-.009.043a48.49 48.49 0 0 0 38 57.081l.042.008a48.489 48.489 0 0 0 57.041-38.063l7.988-39.807a9.661 9.661 0 1 0-18.944-3.8 9.661 9.661 0 1 0-18.944-3.8 9.661 9.661 0 1 0-18.945-3.8 9.661 9.661 0 1 0-18.944-3.8 9.67 9.67 0 0 0-7.57-11.38z" fill="#fff"/><path d="m361.767 49.68 7.984-39.807c.012-.061.031-.121.043-.183A12.984 12.984 0 0 1 384.7.217a12.37 12.37 0 0 1 8.559 6.452 12.374 12.374 0 0 1 18.944 3.8 12.374 12.374 0 0 1 18.945 3.8 12.372 12.372 0 0 1 18.944 3.8 12.388 12.388 0 0 1 20.1 11.951l-7.984 39.806A51.22 51.22 0 1 1 361.767 49.68zm89.48-23.462a2.734 2.734 0 1 1-5.362-1.075v-.008a6.927 6.927 0 1 0-13.585-2.716 2.734 2.734 0 1 1-5.361-1.076 6.927 6.927 0 1 0-13.583-2.724A2.734 2.734 0 1 1 408 17.544a6.927 6.927 0 1 0-13.583-2.724 2.734 2.734 0 1 1-5.362-1.076 6.937 6.937 0 0 0-5.427-8.16 7.494 7.494 0 0 0-8.533 5.465l-7.963 39.706a45.751 45.751 0 1 0 89.716 17.994l7.984-39.807a6.926 6.926 0 1 0-13.582-2.724z" fill="#222433"/><path d="m381.786 50.438 7.5-37.391a2.734 2.734 0 1 1 5.362 1.075l-7.5 37.392a2.734 2.734 0 1 1-5.362-1.076zm18.944 3.8 7.5-37.392a2.734 2.734 0 1 1 5.361 1.076l-7.5 37.391a2.734 2.734 0 1 1-5.362-1.075zm19.034 3.817 7.5-37.391a2.734 2.734 0 1 1 5.362 1.075l-7.5 37.392a2.734 2.734 0 1 1-5.361-1.076zm19.036 3.818 7.5-37.392a2.734 2.734 0 1 1 5.361 1.075l-7.5 37.392a2.734 2.734 0 1 1-5.362-1.075z" fill="#222433"/><path d="M566.152 396.076H71.724V277.113h494.428z" fill="#fff"/><path d="M68.99 396.076V277.113c0-1.048 1.224-1.9 2.734-1.9h494.428c1.51 0 2.734.851 2.734 1.9v118.963c0 1.049-1.224 1.9-2.734 1.9H71.724c-1.51-.001-2.734-.851-2.734-1.9zm494.428-117.063H74.458v115.164h488.96z" fill="#222433"/><path d="M68.99 309.427a2.736 2.736 0 0 1 2.734-2.737h494.428a2.737 2.737 0 0 1 0 5.474H71.724a2.735 2.735 0 0 1-2.734-2.737zm0-31.414a2.735 2.735 0 0 1 2.734-2.737h494.428a2.737 2.737 0 0 1 0 5.474H71.724a2.736 2.736 0 0 1-2.734-2.737z" fill="#222433"/></svg></g><g transform="translate(1088.0 78.0) rotate(0.0 -134.5 105.5) scale(-1.0672062207410933 1.0653014651681763)"><svg width="252.06" height="198.066" viewBox="0 0 252.06 198.066"><path d="M81 3h90.06a78 78 0 0 1 78 78 78 78 0 0 1-78 78H81c-1 0-1.9 0-2.85-.05a22.691 22.691 0 0 0-18.13 7.85l-22.77 26.59a4.77 4.77 0 0 1-8.4-3.11v-42.11A22.61 22.61 0 0 0 23 133.04 77.71 77.71 0 0 1 3 80.93 78 78 0 0 1 81 3z" fill="#fff"/><g fill="#222433"><path d="M33.607 198.066a7.77 7.77 0 0 1-7.757-7.794v-42.1a19.576 19.576 0 0 0-5.074-13.116A80.918 80.918 0 0 1 81 0h90.06a81 81 0 0 1 0 162H81c-1.018 0-1.979 0-3.009-.055a19.578 19.578 0 0 0-15.7 6.814l-22.763 26.582a7.71 7.71 0 0 1-5.291 2.7q-.316.026-.63.025zM81 6a74.918 74.918 0 0 0-55.772 125.031 25.562 25.562 0 0 1 6.622 17.133v42.116a1.77 1.77 0 0 0 .622 1.362 1.768 1.768 0 0 0 2.495-.2l22.774-26.594a25.571 25.571 0 0 1 20.534-8.9c.9.048 1.748.048 2.725.048h90.06a75 75 0 0 0 0-150z"/><path d="M183.53 64.47H62.03a3 3 0 0 1 0-6h121.5a3 3 0 0 1 0 6zm-71.799 33.8H64.53a3 3 0 0 1 0-6h47.2a3 3 0 0 1 0 6zm71.799 0h-37.47a3 3 0 0 1 0-6h37.47a3 3 0 0 1 0 6z"/></g></svg></g><g transform="translate(124.0 1003.0) rotate(0.0 844.0 6.5) scale(1.0378750614854895 1.1403508771929824)"><svg width="1626.4" height="11.4" viewBox="0 0 1626.4 11.4"><path d="M1623.4 8.8H3c-1.7 0-3-1.3-3-3s1.3-3 3-3h1620.4c1.7 0 3 1.3 3 3s-1.3 3-3 3z" fill="#222433"/></svg></g></svg>